{
	"asset":{
		"generator":"Khronos glTF Blender I/O v3.6.27",
		"version":"2.0"
	},
	"extensionsUsed":[
		"KHR_materials_emissive_strength"
	],
	"scene":0,
	"scenes":[
		{
			"name":"Scene",
			"nodes":[
				0,
				1,
				2,
				3,
				4,
				5,
				7,
				8,
				9
			]
		}
	],
	"nodes":[
		{
			"name":"Empty"
		},
		{
			"name":"Empty.002"
		},
		{
			"mesh":0,
			"name":"sun",
			"scale":[
				75.25177001953125,
				75.25177001953125,
				75.25177001953125
			],
			"translation":[
				150.6884307861328,
				0,
				0
			]
		},
		{
			"mesh":1,
			"name":"earth",
			"scale":[
				2.022172212600708,
				2.022172212600708,
				2.022172212600708
			]
		},
		{
			"mesh":2,
			"name":"Sphere.003"
		},
		{
			"mesh":3,
			"name":"moon",
			"scale":[
				0.514939546585083,
				0.514939546585083,
				0.514939546585083
			],
			"translation":[
				10,
				0,
				0
			]
		},
		{
			"name":"Bone"
		},
		{
			"children":[
				6
			],
			"name":"Armature",
			"translation":[
				213.13929748535156,
				-4.27532958984375,
				19.197694778442383
			]
		},
		{
			"mesh":4,
			"name":"atmo",
			"scale":[
				0.20479071140289307,
				0.20479071140289307,
				0.20479071140289307
			]
		},
		{
			"mesh":5,
			"name":"atmo.001",
			"scale":[
				0.2057250440120697,
				0.2057250440120697,
				0.2057250440120697
			]
		}
	],
	"animations":[
		{
			"channels":[
				{
					"sampler":0,
					"target":{
						"node":0,
						"path":"rotation"
					}
				}
			],
			"name":"EmptyAction.001",
			"samplers":[
				{
					"input":23,
					"interpolation":"STEP",
					"output":24
				}
			]
		},
		{
			"channels":[
				{
					"sampler":0,
					"target":{
						"node":1,
						"path":"rotation"
					}
				}
			],
			"name":"Empty.002Action.001",
			"samplers":[
				{
					"input":23,
					"interpolation":"STEP",
					"output":25
				}
			]
		},
		{
			"channels":[
				{
					"sampler":0,
					"target":{
						"node":3,
						"path":"translation"
					}
				},
				{
					"sampler":1,
					"target":{
						"node":3,
						"path":"rotation"
					}
				},
				{
					"sampler":2,
					"target":{
						"node":3,
						"path":"scale"
					}
				}
			],
			"name":"Sphere.001Action.003",
			"samplers":[
				{
					"input":26,
					"interpolation":"STEP",
					"output":27
				},
				{
					"input":28,
					"interpolation":"LINEAR",
					"output":29
				},
				{
					"input":26,
					"interpolation":"STEP",
					"output":30
				}
			]
		},
		{
			"channels":[
				{
					"sampler":0,
					"target":{
						"node":5,
						"path":"translation"
					}
				}
			],
			"name":"Sphere.004Action",
			"samplers":[
				{
					"input":28,
					"interpolation":"LINEAR",
					"output":31
				}
			]
		}
	],
	"materials":[
		{
			"doubleSided":true,
			"emissiveFactor":[
				1,
				1,
				1
			],
			"emissiveTexture":{
				"index":0
			},
			"extensions":{
				"KHR_materials_emissive_strength":{
					"emissiveStrength":3
				}
			},
			"name":"Material.004",
			"pbrMetallicRoughness":{
				"baseColorTexture":{
					"index":1
				},
				"metallicFactor":0,
				"roughnessFactor":0.5
			}
		},
		{
			"doubleSided":true,
			"emissiveFactor":[
				1,
				0.4716181457042694,
				0.1117558628320694
			],
			"name":"earth",
			"pbrMetallicRoughness":{
				"baseColorFactor":[
					0,
					0,
					0,
					1
				]
			}
		},
		{
			"doubleSided":true,
			"name":"Material.003",
			"pbrMetallicRoughness":{
				"baseColorTexture":{
					"index":2
				},
				"metallicFactor":0,
				"roughnessFactor":0.5
			}
		},
		{
			"doubleSided":true,
			"name":"atmo",
			"pbrMetallicRoughness":{}
		}
	],
	"meshes":[
		{
			"name":"Sphere.072",
			"primitives":[
				{
					"attributes":{
						"POSITION":0,
						"NORMAL":1,
						"TEXCOORD_0":2
					},
					"indices":3,
					"material":0
				}
			]
		},
		{
			"name":"Sphere.073",
			"primitives":[
				{
					"attributes":{
						"POSITION":4,
						"NORMAL":5,
						"TEXCOORD_0":6
					},
					"indices":7,
					"material":1
				}
			]
		},
		{
			"name":"Sphere",
			"primitives":[
				{
					"attributes":{
						"POSITION":8,
						"NORMAL":9,
						"TEXCOORD_0":10
					},
					"indices":11
				}
			]
		},
		{
			"name":"moon",
			"primitives":[
				{
					"attributes":{
						"POSITION":12,
						"NORMAL":13,
						"TEXCOORD_0":14
					},
					"indices":15,
					"material":2
				}
			]
		},
		{
			"name":"Sphere.002",
			"primitives":[
				{
					"attributes":{
						"POSITION":16,
						"NORMAL":17,
						"TEXCOORD_0":18
					},
					"indices":19,
					"material":3
				}
			]
		},
		{
			"name":"Sphere.003",
			"primitives":[
				{
					"attributes":{
						"POSITION":20,
						"NORMAL":21,
						"TEXCOORD_0":22
					},
					"indices":19,
					"material":1
				}
			]
		}
	],
	"textures":[
		{
			"sampler":0,
			"source":0
		},
		{
			"sampler":0,
			"source":0
		},
		{
			"sampler":0,
			"source":1
		}
	],
	"images":[
		{
			"mimeType":"image/jpeg",
			"name":"8k_sun",
			"uri":"8k_sun.jpg"
		},
		{
			"mimeType":"image/jpeg",
			"name":"8k_moon",
			"uri":"8k_moon.jpg"
		}
	],
	"skins":[
		{
			"inverseBindMatrices":32,
			"joints":[
				6
			],
			"name":"Armature"
		}
	],
	"accessors":[
		{
			"bufferView":0,
			"componentType":5126,
			"count":559,
			"max":[
				0.9999997019767761,
				1,
				0.9999993443489075
			],
			"min":[
				-0.9999990463256836,
				-1,
				-1
			],
			"type":"VEC3"
		},
		{
			"bufferView":1,
			"componentType":5126,
			"count":559,
			"type":"VEC3"
		},
		{
			"bufferView":2,
			"componentType":5126,
			"count":559,
			"type":"VEC2"
		},
		{
			"bufferView":3,
			"componentType":5123,
			"count":2880,
			"type":"SCALAR"
		},
		{
			"bufferView":4,
			"componentType":5126,
			"count":559,
			"max":[
				0.9999997019767761,
				1,
				0.9999993443489075
			],
			"min":[
				-0.9999990463256836,
				-1,
				-1
			],
			"type":"VEC3"
		},
		{
			"bufferView":5,
			"componentType":5126,
			"count":559,
			"type":"VEC3"
		},
		{
			"bufferView":6,
			"componentType":5126,
			"count":559,
			"type":"VEC2"
		},
		{
			"bufferView":7,
			"componentType":5123,
			"count":2880,
			"type":"SCALAR"
		},
		{
			"bufferView":8,
			"componentType":5126,
			"count":1984,
			"max":[
				0.9999997019767761,
				1,
				0.9999993443489075
			],
			"min":[
				-0.9999990463256836,
				-1,
				-1
			],
			"type":"VEC3"
		},
		{
			"bufferView":9,
			"componentType":5126,
			"count":1984,
			"type":"VEC3"
		},
		{
			"bufferView":10,
			"componentType":5126,
			"count":1984,
			"type":"VEC2"
		},
		{
			"bufferView":11,
			"componentType":5123,
			"count":2880,
			"type":"SCALAR"
		},
		{
			"bufferView":12,
			"componentType":5126,
			"count":559,
			"max":[
				0.9999997019767761,
				1,
				0.9999993443489075
			],
			"min":[
				-0.9999990463256836,
				-1,
				-1
			],
			"type":"VEC3"
		},
		{
			"bufferView":13,
			"componentType":5126,
			"count":559,
			"type":"VEC3"
		},
		{
			"bufferView":14,
			"componentType":5126,
			"count":559,
			"type":"VEC2"
		},
		{
			"bufferView":15,
			"componentType":5123,
			"count":2880,
			"type":"SCALAR"
		},
		{
			"bufferView":16,
			"componentType":5126,
			"count":559,
			"max":[
				10.100253105163574,
				10.100250244140625,
				10.10025405883789
			],
			"min":[
				-10.100248336791992,
				-10.100250244140625,
				-10.100250244140625
			],
			"type":"VEC3"
		},
		{
			"bufferView":17,
			"componentType":5126,
			"count":559,
			"type":"VEC3"
		},
		{
			"bufferView":18,
			"componentType":5126,
			"count":559,
			"type":"VEC2"
		},
		{
			"bufferView":19,
			"componentType":5123,
			"count":2880,
			"type":"SCALAR"
		},
		{
			"bufferView":20,
			"componentType":5126,
			"count":559,
			"max":[
				10.100253105163574,
				10.100250244140625,
				10.10025405883789
			],
			"min":[
				-10.100248336791992,
				-10.100250244140625,
				-10.100250244140625
			],
			"type":"VEC3"
		},
		{
			"bufferView":21,
			"componentType":5126,
			"count":559,
			"type":"VEC3"
		},
		{
			"bufferView":22,
			"componentType":5126,
			"count":559,
			"type":"VEC2"
		},
		{
			"bufferView":23,
			"componentType":5126,
			"count":2,
			"max":[
				1.6666666666666667
			],
			"min":[
				0.8333333333333334
			],
			"type":"SCALAR"
		},
		{
			"bufferView":24,
			"componentType":5126,
			"count":2,
			"type":"VEC4"
		},
		{
			"bufferView":25,
			"componentType":5126,
			"count":2,
			"type":"VEC4"
		},
		{
			"bufferView":26,
			"componentType":5126,
			"count":2,
			"max":[
				15
			],
			"min":[
				0
			],
			"type":"SCALAR"
		},
		{
			"bufferView":27,
			"componentType":5126,
			"count":2,
			"type":"VEC3"
		},
		{
			"bufferView":28,
			"componentType":5126,
			"count":361,
			"max":[
				15
			],
			"min":[
				0
			],
			"type":"SCALAR"
		},
		{
			"bufferView":29,
			"componentType":5126,
			"count":361,
			"type":"VEC4"
		},
		{
			"bufferView":30,
			"componentType":5126,
			"count":2,
			"type":"VEC3"
		},
		{
			"bufferView":31,
			"componentType":5126,
			"count":361,
			"type":"VEC3"
		},
		{
			"bufferView":32,
			"componentType":5126,
			"count":1,
			"type":"MAT4"
		}
	],
	"bufferViews":[
		{
			"buffer":0,
			"byteLength":6708,
			"byteOffset":0,
			"target":34962
		},
		{
			"buffer":0,
			"byteLength":6708,
			"byteOffset":6708,
			"target":34962
		},
		{
			"buffer":0,
			"byteLength":4472,
			"byteOffset":13416,
			"target":34962
		},
		{
			"buffer":0,
			"byteLength":5760,
			"byteOffset":17888,
			"target":34963
		},
		{
			"buffer":0,
			"byteLength":6708,
			"byteOffset":23648,
			"target":34962
		},
		{
			"buffer":0,
			"byteLength":6708,
			"byteOffset":30356,
			"target":34962
		},
		{
			"buffer":0,
			"byteLength":4472,
			"byteOffset":37064,
			"target":34962
		},
		{
			"buffer":0,
			"byteLength":5760,
			"byteOffset":41536,
			"target":34963
		},
		{
			"buffer":0,
			"byteLength":23808,
			"byteOffset":47296,
			"target":34962
		},
		{
			"buffer":0,
			"byteLength":23808,
			"byteOffset":71104,
			"target":34962
		},
		{
			"buffer":0,
			"byteLength":15872,
			"byteOffset":94912,
			"target":34962
		},
		{
			"buffer":0,
			"byteLength":5760,
			"byteOffset":110784,
			"target":34963
		},
		{
			"buffer":0,
			"byteLength":6708,
			"byteOffset":116544,
			"target":34962
		},
		{
			"buffer":0,
			"byteLength":6708,
			"byteOffset":123252,
			"target":34962
		},
		{
			"buffer":0,
			"byteLength":4472,
			"byteOffset":129960,
			"target":34962
		},
		{
			"buffer":0,
			"byteLength":5760,
			"byteOffset":134432,
			"target":34963
		},
		{
			"buffer":0,
			"byteLength":6708,
			"byteOffset":140192,
			"target":34962
		},
		{
			"buffer":0,
			"byteLength":6708,
			"byteOffset":146900,
			"target":34962
		},
		{
			"buffer":0,
			"byteLength":4472,
			"byteOffset":153608,
			"target":34962
		},
		{
			"buffer":0,
			"byteLength":5760,
			"byteOffset":158080,
			"target":34963
		},
		{
			"buffer":0,
			"byteLength":6708,
			"byteOffset":163840,
			"target":34962
		},
		{
			"buffer":0,
			"byteLength":6708,
			"byteOffset":170548,
			"target":34962
		},
		{
			"buffer":0,
			"byteLength":4472,
			"byteOffset":177256,
			"target":34962
		},
		{
			"buffer":0,
			"byteLength":8,
			"byteOffset":181728
		},
		{
			"buffer":0,
			"byteLength":32,
			"byteOffset":181736
		},
		{
			"buffer":0,
			"byteLength":32,
			"byteOffset":181768
		},
		{
			"buffer":0,
			"byteLength":8,
			"byteOffset":181800
		},
		{
			"buffer":0,
			"byteLength":24,
			"byteOffset":181808
		},
		{
			"buffer":0,
			"byteLength":1444,
			"byteOffset":181832
		},
		{
			"buffer":0,
			"byteLength":5776,
			"byteOffset":183276
		},
		{
			"buffer":0,
			"byteLength":24,
			"byteOffset":189052
		},
		{
			"buffer":0,
			"byteLength":4332,
			"byteOffset":189076
		},
		{
			"buffer":0,
			"byteLength":64,
			"byteOffset":193408
		}
	],
	"samplers":[
		{
			"magFilter":9729,
			"minFilter":9987
		}
	],
	"buffers":[
		{
			"byteLength":193472,
			"uri":"eclipse_ar.bin"
		}
	]
}
