{
	"asset":{
		"generator":"Khronos glTF Blender I/O v3.6.27",
		"version":"2.0"
	},
	"scene":0,
	"scenes":[
		{
			"name":"Scene",
			"nodes":[
				0,
				1,
				2
			]
		}
	],
	"nodes":[
		{
			"mesh":0,
			"name":"Cube",
			"scale":[
				0.7376977205276489,
				0.7376977205276489,
				1.1624996662139893
			],
			"translation":[
				0,
				0.8012970089912415,
				0
			]
		},
		{
			"mesh":1,
			"name":"Cube.001",
			"rotation":[
				-0.09168414771556854,
				0.7011376619338989,
				-0.09168414771556854,
				0.7011376619338989
			],
			"scale":[
				0.19559790194034576,
				0.19559790194034576,
				0.278693288564682
			],
			"translation":[
				0.041590552777051926,
				1.5264003276824951,
				1.466465950012207
			]
		},
		{
			"mesh":2,
			"name":"Cube.002",
			"rotation":[
				0,
				0,
				-1,
				0
			],
			"scale":[
				-1.05970299243927,
				-0.04649096354842186,
				-1.6493335962295532
			],
			"translation":[
				0,
				2.0212957859039307,
				0
			]
		}
	],
	"materials":[
		{
			"doubleSided":true,
			"name":"Material",
			"pbrMetallicRoughness":{
				"baseColorFactor":[
					0.39787667989730835,
					0.3531065881252289,
					0.39182305335998535,
					1
				],
				"metallicFactor":0,
				"roughnessFactor":0.4000000059604645
			}
		},
		{
			"doubleSided":true,
			"name":"Material.001",
			"pbrMetallicRoughness":{
				"baseColorFactor":[
					0.17805905640125275,
					0.22646765410900116,
					0.2762029767036438,
					1
				],
				"metallicFactor":0,
				"roughnessFactor":0.5
			}
		},
		{
			"doubleSided":true,
			"name":"Material.003",
			"pbrMetallicRoughness":{
				"baseColorFactor":[
					0.13573013246059418,
					0.15735335648059845,
					0.1719505935907364,
					1
				],
				"metallicFactor":0.23404255509376526,
				"roughnessFactor":0.40425533056259155
			}
		}
	],
	"meshes":[
		{
			"name":"Cube",
			"primitives":[
				{
					"attributes":{
						"POSITION":0,
						"NORMAL":1,
						"TEXCOORD_0":2
					},
					"indices":3,
					"material":0
				}
			]
		},
		{
			"name":"Cube.001",
			"primitives":[
				{
					"attributes":{
						"POSITION":4,
						"NORMAL":5,
						"TEXCOORD_0":6
					},
					"indices":7,
					"material":1
				},
				{
					"attributes":{
						"POSITION":8,
						"NORMAL":9,
						"TEXCOORD_0":10
					},
					"indices":11,
					"material":2
				}
			]
		},
		{
			"name":"Cube.002",
			"primitives":[
				{
					"attributes":{
						"POSITION":12,
						"NORMAL":13,
						"TEXCOORD_0":14
					},
					"indices":15,
					"material":1
				},
				{
					"attributes":{
						"POSITION":16,
						"NORMAL":17,
						"TEXCOORD_0":18
					},
					"indices":19,
					"material":2
				}
			]
		}
	],
	"accessors":[
		{
			"bufferView":0,
			"componentType":5126,
			"count":108,
			"max":[
				1.384598970413208,
				1.5857586860656738,
				1.384598970413208
			],
			"min":[
				-1.384598970413208,
				-1,
				-1.384598970413208
			],
			"type":"VEC3"
		},
		{
			"bufferView":1,
			"componentType":5126,
			"count":108,
			"type":"VEC3"
		},
		{
			"bufferView":2,
			"componentType":5126,
			"count":108,
			"type":"VEC2"
		},
		{
			"bufferView":3,
			"componentType":5123,
			"count":174,
			"type":"SCALAR"
		},
		{
			"bufferView":4,
			"componentType":5126,
			"count":52,
			"max":[
				1,
				1,
				1
			],
			"min":[
				-1.179404616355896,
				-1,
				-1
			],
			"type":"VEC3"
		},
		{
			"bufferView":5,
			"componentType":5126,
			"count":52,
			"type":"VEC3"
		},
		{
			"bufferView":6,
			"componentType":5126,
			"count":52,
			"type":"VEC2"
		},
		{
			"bufferView":7,
			"componentType":5123,
			"count":102,
			"type":"SCALAR"
		},
		{
			"bufferView":8,
			"componentType":5126,
			"count":4,
			"max":[
				-0.9743709564208984,
				0.715247392654419,
				0.715247392654419
			],
			"min":[
				-0.9743709564208984,
				-0.715247392654419,
				-0.715247392654419
			],
			"type":"VEC3"
		},
		{
			"bufferView":9,
			"componentType":5126,
			"count":4,
			"type":"VEC3"
		},
		{
			"bufferView":10,
			"componentType":5126,
			"count":4,
			"type":"VEC2"
		},
		{
			"bufferView":11,
			"componentType":5123,
			"count":6,
			"type":"SCALAR"
		},
		{
			"bufferView":12,
			"componentType":5126,
			"count":184,
			"max":[
				1,
				19.170307159423828,
				1
			],
			"min":[
				-1,
				-1,
				-1
			],
			"type":"VEC3"
		},
		{
			"bufferView":13,
			"componentType":5126,
			"count":184,
			"type":"VEC3"
		},
		{
			"bufferView":14,
			"componentType":5126,
			"count":184,
			"type":"VEC2"
		},
		{
			"bufferView":15,
			"componentType":5123,
			"count":486,
			"type":"SCALAR"
		},
		{
			"bufferView":16,
			"componentType":5126,
			"count":4,
			"max":[
				0.3745681345462799,
				13.94504451751709,
				-0.23223967850208282
			],
			"min":[
				-0.27691686153411865,
				2.324934482574463,
				-0.29236191511154175
			],
			"type":"VEC3"
		},
		{
			"bufferView":17,
			"componentType":5126,
			"count":4,
			"type":"VEC3"
		},
		{
			"bufferView":18,
			"componentType":5126,
			"count":4,
			"type":"VEC2"
		},
		{
			"bufferView":19,
			"componentType":5123,
			"count":6,
			"type":"SCALAR"
		}
	],
	"bufferViews":[
		{
			"buffer":0,
			"byteLength":1296,
			"byteOffset":0,
			"target":34962
		},
		{
			"buffer":0,
			"byteLength":1296,
			"byteOffset":1296,
			"target":34962
		},
		{
			"buffer":0,
			"byteLength":864,
			"byteOffset":2592,
			"target":34962
		},
		{
			"buffer":0,
			"byteLength":348,
			"byteOffset":3456,
			"target":34963
		},
		{
			"buffer":0,
			"byteLength":624,
			"byteOffset":3804,
			"target":34962
		},
		{
			"buffer":0,
			"byteLength":624,
			"byteOffset":4428,
			"target":34962
		},
		{
			"buffer":0,
			"byteLength":416,
			"byteOffset":5052,
			"target":34962
		},
		{
			"buffer":0,
			"byteLength":204,
			"byteOffset":5468,
			"target":34963
		},
		{
			"buffer":0,
			"byteLength":48,
			"byteOffset":5672,
			"target":34962
		},
		{
			"buffer":0,
			"byteLength":48,
			"byteOffset":5720,
			"target":34962
		},
		{
			"buffer":0,
			"byteLength":32,
			"byteOffset":5768,
			"target":34962
		},
		{
			"buffer":0,
			"byteLength":12,
			"byteOffset":5800,
			"target":34963
		},
		{
			"buffer":0,
			"byteLength":2208,
			"byteOffset":5812,
			"target":34962
		},
		{
			"buffer":0,
			"byteLength":2208,
			"byteOffset":8020,
			"target":34962
		},
		{
			"buffer":0,
			"byteLength":1472,
			"byteOffset":10228,
			"target":34962
		},
		{
			"buffer":0,
			"byteLength":972,
			"byteOffset":11700,
			"target":34963
		},
		{
			"buffer":0,
			"byteLength":48,
			"byteOffset":12672,
			"target":34962
		},
		{
			"buffer":0,
			"byteLength":48,
			"byteOffset":12720,
			"target":34962
		},
		{
			"buffer":0,
			"byteLength":32,
			"byteOffset":12768,
			"target":34962
		},
		{
			"buffer":0,
			"byteLength":12,
			"byteOffset":12800,
			"target":34963
		}
	],
	"buffers":[
		{
			"byteLength":12812,
			"uri":"machine.bin"
		}
	]
}
