{
	"asset":{
		"generator":"Khronos glTF Blender I/O v3.6.27",
		"version":"2.0"
	},
	"extensionsUsed":[
		"KHR_materials_emissive_strength"
	],
	"scene":0,
	"scenes":[
		{
			"name":"Scene",
			"nodes":[
				0,
				1,
				3,
				4
			]
		}
	],
	"nodes":[
		{
			"mesh":0,
			"name":"sun",
			"scale":[
				75.25177001953125,
				75.25177001953125,
				75.25177001953125
			],
			"translation":[
				150.6884307861328,
				0,
				0
			]
		},
		{
			"mesh":1,
			"name":"earth",
			"rotation":[
				0,
				-0.34201937913894653,
				0,
				0.9396929144859314
			],
			"scale":[
				2.022172212600708,
				2.022172212600708,
				2.022172212600708
			]
		},
		{
			"name":"Bone"
		},
		{
			"children":[
				2
			],
			"name":"Armature",
			"translation":[
				213.13929748535156,
				-4.27532958984375,
				19.197694778442383
			]
		},
		{
			"mesh":2,
			"name":"Sphere.001",
			"scale":[
				-0.7493764162063599,
				-0.7493764162063599,
				-0.7493764162063599
			],
			"translation":[
				10,
				0,
				0
			]
		}
	],
	"animations":[
		{
			"channels":[
				{
					"sampler":0,
					"target":{
						"node":1,
						"path":"translation"
					}
				},
				{
					"sampler":1,
					"target":{
						"node":1,
						"path":"rotation"
					}
				},
				{
					"sampler":2,
					"target":{
						"node":1,
						"path":"scale"
					}
				}
			],
			"name":"Sphere.001Action.003",
			"samplers":[
				{
					"input":12,
					"interpolation":"STEP",
					"output":13
				},
				{
					"input":14,
					"interpolation":"LINEAR",
					"output":15
				},
				{
					"input":12,
					"interpolation":"STEP",
					"output":16
				}
			]
		},
		{
			"channels":[
				{
					"sampler":0,
					"target":{
						"node":2,
						"path":"translation"
					}
				},
				{
					"sampler":1,
					"target":{
						"node":2,
						"path":"rotation"
					}
				},
				{
					"sampler":2,
					"target":{
						"node":2,
						"path":"scale"
					}
				}
			],
			"name":"Armature",
			"samplers":[
				{
					"input":17,
					"interpolation":"STEP",
					"output":18
				},
				{
					"input":17,
					"interpolation":"STEP",
					"output":19
				},
				{
					"input":17,
					"interpolation":"STEP",
					"output":20
				}
			]
		},
		{
			"channels":[
				{
					"sampler":0,
					"target":{
						"node":4,
						"path":"translation"
					}
				}
			],
			"name":"Sphere.001Action",
			"samplers":[
				{
					"input":21,
					"interpolation":"LINEAR",
					"output":22
				}
			]
		}
	],
	"materials":[
		{
			"doubleSided":true,
			"emissiveFactor":[
				1,
				1,
				1
			],
			"emissiveTexture":{
				"index":0
			},
			"extensions":{
				"KHR_materials_emissive_strength":{
					"emissiveStrength":3
				}
			},
			"name":"Material.004",
			"pbrMetallicRoughness":{
				"baseColorTexture":{
					"index":1
				},
				"metallicFactor":0,
				"roughnessFactor":0.5
			}
		},
		{
			"doubleSided":true,
			"name":"Material",
			"pbrMetallicRoughness":{
				"baseColorTexture":{
					"index":2
				},
				"metallicFactor":0,
				"roughnessFactor":0.5
			}
		},
		{
			"doubleSided":true,
			"name":"Material.003",
			"pbrMetallicRoughness":{
				"baseColorTexture":{
					"index":3
				},
				"metallicFactor":0,
				"roughnessFactor":0.5
			}
		}
	],
	"meshes":[
		{
			"name":"Sphere.072",
			"primitives":[
				{
					"attributes":{
						"POSITION":0,
						"NORMAL":1,
						"TEXCOORD_0":2
					},
					"indices":3,
					"material":0
				}
			]
		},
		{
			"name":"Sphere.073",
			"primitives":[
				{
					"attributes":{
						"POSITION":4,
						"NORMAL":5,
						"TEXCOORD_0":6
					},
					"indices":7,
					"material":1
				}
			]
		},
		{
			"name":"Sphere.004",
			"primitives":[
				{
					"attributes":{
						"POSITION":8,
						"NORMAL":9,
						"TEXCOORD_0":10
					},
					"indices":11,
					"material":2
				}
			]
		}
	],
	"textures":[
		{
			"sampler":0,
			"source":0
		},
		{
			"sampler":0,
			"source":0
		},
		{
			"sampler":0,
			"source":1
		},
		{
			"sampler":0,
			"source":2
		}
	],
	"images":[
		{
			"mimeType":"image/jpeg",
			"name":"8k_sun",
			"uri":"8k_sun.jpg"
		},
		{
			"mimeType":"image/jpeg",
			"name":"8k_earth_daymap",
			"uri":"8k_earth_daymap.jpg"
		},
		{
			"mimeType":"image/jpeg",
			"name":"8k_moon",
			"uri":"8k_moon.jpg"
		}
	],
	"skins":[
		{
			"inverseBindMatrices":23,
			"joints":[
				2
			],
			"name":"Armature"
		}
	],
	"accessors":[
		{
			"bufferView":0,
			"componentType":5126,
			"count":559,
			"max":[
				0.9999997019767761,
				1,
				0.9999993443489075
			],
			"min":[
				-0.9999990463256836,
				-1,
				-1
			],
			"type":"VEC3"
		},
		{
			"bufferView":1,
			"componentType":5126,
			"count":559,
			"type":"VEC3"
		},
		{
			"bufferView":2,
			"componentType":5126,
			"count":559,
			"type":"VEC2"
		},
		{
			"bufferView":3,
			"componentType":5123,
			"count":2880,
			"type":"SCALAR"
		},
		{
			"bufferView":4,
			"componentType":5126,
			"count":559,
			"max":[
				0.9999997019767761,
				1,
				0.9999993443489075
			],
			"min":[
				-0.9999990463256836,
				-1,
				-1
			],
			"type":"VEC3"
		},
		{
			"bufferView":5,
			"componentType":5126,
			"count":559,
			"type":"VEC3"
		},
		{
			"bufferView":6,
			"componentType":5126,
			"count":559,
			"type":"VEC2"
		},
		{
			"bufferView":7,
			"componentType":5123,
			"count":2880,
			"type":"SCALAR"
		},
		{
			"bufferView":8,
			"componentType":5126,
			"count":559,
			"max":[
				0.9999997019767761,
				1,
				0.9999993443489075
			],
			"min":[
				-0.9999990463256836,
				-1,
				-1
			],
			"type":"VEC3"
		},
		{
			"bufferView":9,
			"componentType":5126,
			"count":559,
			"type":"VEC3"
		},
		{
			"bufferView":10,
			"componentType":5126,
			"count":559,
			"type":"VEC2"
		},
		{
			"bufferView":11,
			"componentType":5123,
			"count":2880,
			"type":"SCALAR"
		},
		{
			"bufferView":12,
			"componentType":5126,
			"count":2,
			"max":[
				29.958333333333332
			],
			"min":[
				0
			],
			"type":"SCALAR"
		},
		{
			"bufferView":13,
			"componentType":5126,
			"count":2,
			"type":"VEC3"
		},
		{
			"bufferView":14,
			"componentType":5126,
			"count":720,
			"max":[
				29.958333333333332
			],
			"min":[
				0
			],
			"type":"SCALAR"
		},
		{
			"bufferView":15,
			"componentType":5126,
			"count":720,
			"type":"VEC4"
		},
		{
			"bufferView":16,
			"componentType":5126,
			"count":2,
			"type":"VEC3"
		},
		{
			"bufferView":17,
			"componentType":5126,
			"count":2,
			"max":[
				30
			],
			"min":[
				0
			],
			"type":"SCALAR"
		},
		{
			"bufferView":18,
			"componentType":5126,
			"count":2,
			"type":"VEC3"
		},
		{
			"bufferView":19,
			"componentType":5126,
			"count":2,
			"type":"VEC4"
		},
		{
			"bufferView":20,
			"componentType":5126,
			"count":2,
			"type":"VEC3"
		},
		{
			"bufferView":21,
			"componentType":5126,
			"count":721,
			"max":[
				30
			],
			"min":[
				0
			],
			"type":"SCALAR"
		},
		{
			"bufferView":22,
			"componentType":5126,
			"count":721,
			"type":"VEC3"
		},
		{
			"bufferView":23,
			"componentType":5126,
			"count":1,
			"type":"MAT4"
		}
	],
	"bufferViews":[
		{
			"buffer":0,
			"byteLength":6708,
			"byteOffset":0,
			"target":34962
		},
		{
			"buffer":0,
			"byteLength":6708,
			"byteOffset":6708,
			"target":34962
		},
		{
			"buffer":0,
			"byteLength":4472,
			"byteOffset":13416,
			"target":34962
		},
		{
			"buffer":0,
			"byteLength":5760,
			"byteOffset":17888,
			"target":34963
		},
		{
			"buffer":0,
			"byteLength":6708,
			"byteOffset":23648,
			"target":34962
		},
		{
			"buffer":0,
			"byteLength":6708,
			"byteOffset":30356,
			"target":34962
		},
		{
			"buffer":0,
			"byteLength":4472,
			"byteOffset":37064,
			"target":34962
		},
		{
			"buffer":0,
			"byteLength":5760,
			"byteOffset":41536,
			"target":34963
		},
		{
			"buffer":0,
			"byteLength":6708,
			"byteOffset":47296,
			"target":34962
		},
		{
			"buffer":0,
			"byteLength":6708,
			"byteOffset":54004,
			"target":34962
		},
		{
			"buffer":0,
			"byteLength":4472,
			"byteOffset":60712,
			"target":34962
		},
		{
			"buffer":0,
			"byteLength":5760,
			"byteOffset":65184,
			"target":34963
		},
		{
			"buffer":0,
			"byteLength":8,
			"byteOffset":70944
		},
		{
			"buffer":0,
			"byteLength":24,
			"byteOffset":70952
		},
		{
			"buffer":0,
			"byteLength":2880,
			"byteOffset":70976
		},
		{
			"buffer":0,
			"byteLength":11520,
			"byteOffset":73856
		},
		{
			"buffer":0,
			"byteLength":24,
			"byteOffset":85376
		},
		{
			"buffer":0,
			"byteLength":8,
			"byteOffset":85400
		},
		{
			"buffer":0,
			"byteLength":24,
			"byteOffset":85408
		},
		{
			"buffer":0,
			"byteLength":32,
			"byteOffset":85432
		},
		{
			"buffer":0,
			"byteLength":24,
			"byteOffset":85464
		},
		{
			"buffer":0,
			"byteLength":2884,
			"byteOffset":85488
		},
		{
			"buffer":0,
			"byteLength":8652,
			"byteOffset":88372
		},
		{
			"buffer":0,
			"byteLength":64,
			"byteOffset":97024
		}
	],
	"samplers":[
		{
			"magFilter":9729,
			"minFilter":9987
		}
	],
	"buffers":[
		{
			"byteLength":97088,
			"uri":"eclipse_ar1.bin"
		}
	]
}
