{
	"asset":{
		"generator":"Khronos glTF Blender I/O v3.6.27",
		"version":"2.0"
	},
	"scene":0,
	"scenes":[
		{
			"name":"Scene",
			"nodes":[
				0,
				1,
				2,
				3,
				4,
				5,
				6,
				7,
				8,
				9,
				10
			]
		}
	],
	"nodes":[
		{
			"mesh":0,
			"name":"Cube",
			"rotation":[
				0,
				0,
				-1,
				0
			],
			"scale":[
				1.4453436136245728,
				0.09999997913837433,
				0.8480234146118164
			],
			"translation":[
				0,
				0.23336929082870483,
				0
			]
		},
		{
			"mesh":1,
			"name":"Cylinder",
			"rotation":[
				0,
				0,
				-0.14780940115451813,
				0.9890158772468567
			],
			"scale":[
				0.046462852507829666,
				0.046462852507829666,
				0.046462852507829666
			],
			"translation":[
				-1.1029139757156372,
				0.44093596935272217,
				0.6218074560165405
			]
		},
		{
			"mesh":2,
			"name":"Cylinder.001",
			"rotation":[
				0,
				0,
				-0.14780940115451813,
				0.9890158772468567
			],
			"scale":[
				0.046462852507829666,
				0.046462852507829666,
				0.046462852507829666
			],
			"translation":[
				-1.1029139757156372,
				0.44093596935272217,
				-0.6663550138473511
			]
		},
		{
			"mesh":3,
			"name":"Cube.001",
			"rotation":[
				0.14780940115451813,
				0.9890158772468567,
				0,
				0
			],
			"scale":[
				-0.21140874922275543,
				-0.06961798667907715,
				-0.4899998903274536
			],
			"translation":[
				-1.0977585315704346,
				0.43232104182243347,
				-0.019447816535830498
			]
		},
		{
			"mesh":4,
			"name":"Cube.002",
			"rotation":[
				0,
				0,
				-0.06975648552179337,
				0.9975641369819641
			],
			"scale":[
				0.09529506415128708,
				0.01324588991701603,
				0.09262363612651825
			],
			"translation":[
				1.0931882858276367,
				0.28427407145500183,
				-0.533954381942749
			]
		},
		{
			"mesh":5,
			"name":"Cube.003",
			"rotation":[
				0.5,
				-0.5,
				-0.5,
				0.5
			],
			"scale":[
				0.02439531683921814,
				0.23561666905879974,
				0.09170263260602951
			],
			"translation":[
				1.0904022455215454,
				0.12593410909175873,
				-1.1995834112167358
			]
		},
		{
			"mesh":6,
			"name":"Cube.004",
			"rotation":[
				0,
				0,
				-0.06975647807121277,
				0.9975640773773193
			],
			"scale":[
				-0.06108909100294113,
				-0.01496367808431387,
				-0.1272173821926117
			],
			"translation":[
				0.9445388317108154,
				0.30136990547180176,
				0.4888073205947876
			]
		},
		{
			"mesh":7,
			"name":"Cube.005",
			"scale":[
				-0.06108909100294113,
				-0.01496367808431387,
				-0.1272173821926117
			],
			"translation":[
				0.5180856585502625,
				0.3559405207633972,
				0.4888073205947876
			]
		},
		{
			"mesh":8,
			"name":"Text",
			"rotation":[
				0.049325283616781235,
				0.705384373664856,
				-0.049325283616781235,
				0.7053843140602112
			],
			"scale":[
				0.7527340650558472,
				0.7527340054512024,
				0.7527340054512024
			],
			"translation":[
				1.1031376123428345,
				0.30701205134391785,
				-0.4611993432044983
			]
		},
		{
			"mesh":9,
			"name":"Text.001",
			"rotation":[
				0.055478960275650024,
				0.7049270272254944,
				-0.055478960275650024,
				0.7049269676208496
			],
			"translation":[
				0.9699999690055847,
				0.3144828677177429,
				0.5799999833106995
			]
		},
		{
			"mesh":10,
			"name":"Text.002",
			"rotation":[
				-0.10451703518629074,
				-0.6993398070335388,
				-0.10451705008745193,
				0.6993398070335388
			],
			"scale":[
				-0.5249837040901184,
				-0.685016393661499,
				-0.9249836802482605
			],
			"translation":[
				-0.9900000095367432,
				0.4644247889518738,
				0.37999993562698364
			]
		}
	],
	"materials":[
		{
			"doubleSided":true,
			"name":"Material",
			"pbrMetallicRoughness":{
				"baseColorFactor":[
					0.800000011920929,
					0.800000011920929,
					0.800000011920929,
					1
				],
				"metallicFactor":0,
				"roughnessFactor":0.5
			}
		},
		{
			"doubleSided":true,
			"name":"Material.001",
			"pbrMetallicRoughness":{
				"baseColorFactor":[
					0,
					0.048205722123384476,
					0.8000000715255737,
					1
				],
				"metallicFactor":0,
				"roughnessFactor":0.5
			}
		},
		{
			"doubleSided":true,
			"name":"Material.011",
			"pbrMetallicRoughness":{
				"baseColorFactor":[
					0.00037164901732467115,
					0.02754613384604454,
					0.8000000715255737,
					1
				],
				"metallicFactor":0,
				"roughnessFactor":0.5
			}
		},
		{
			"doubleSided":true,
			"name":"Material.006",
			"pbrMetallicRoughness":{
				"baseColorFactor":[
					0,
					0.8000000715255737,
					0.0019374853000044823,
					1
				],
				"metallicFactor":0,
				"roughnessFactor":0.5
			}
		},
		{
			"doubleSided":true,
			"name":"Material.007",
			"pbrMetallicRoughness":{
				"baseColorFactor":[
					0.8000000715255737,
					0.004094067495316267,
					0.003111229743808508,
					1
				],
				"metallicFactor":0,
				"roughnessFactor":0.5
			}
		},
		{
			"doubleSided":true,
			"name":"Material.008",
			"pbrMetallicRoughness":{
				"baseColorFactor":[
					0,
					0,
					0,
					1
				],
				"metallicFactor":0,
				"roughnessFactor":0.5
			}
		},
		{
			"doubleSided":true,
			"name":"Material.009",
			"pbrMetallicRoughness":{
				"baseColorFactor":[
					0.1412562131881714,
					0.14876598119735718,
					0.1560242921113968,
					1
				],
				"metallicFactor":0.3103448450565338,
				"roughnessFactor":0.3045977056026459
			}
		},
		{
			"doubleSided":true,
			"name":"Material.004",
			"pbrMetallicRoughness":{
				"baseColorFactor":[
					0.0013866070657968521,
					0.03031451255083084,
					0.8000000715255737,
					1
				],
				"metallicFactor":0,
				"roughnessFactor":0.5
			}
		},
		{
			"doubleSided":true,
			"name":"Material.003",
			"pbrMetallicRoughness":{
				"baseColorFactor":[
					0,
					0.044013459235429764,
					0.8000000715255737,
					1
				],
				"metallicFactor":0,
				"roughnessFactor":0.5
			}
		},
		{
			"doubleSided":true,
			"name":"Material.010",
			"pbrMetallicRoughness":{
				"baseColorFactor":[
					0.0042103491723537445,
					0.0042103491723537445,
					0.0042103491723537445,
					1
				],
				"metallicFactor":0,
				"roughnessFactor":0.5
			}
		},
		{
			"doubleSided":true,
			"name":"Material.012",
			"pbrMetallicRoughness":{
				"metallicFactor":0,
				"roughnessFactor":0.5
			}
		},
		{
			"doubleSided":true,
			"name":"Material.013",
			"pbrMetallicRoughness":{
				"metallicFactor":0,
				"roughnessFactor":0.5
			}
		},
		{
			"doubleSided":true,
			"name":"Material.014",
			"pbrMetallicRoughness":{
				"baseColorFactor":[
					0.8000000715255737,
					0,
					0.0028610031586140394,
					1
				],
				"metallicFactor":0,
				"roughnessFactor":0.5
			}
		}
	],
	"meshes":[
		{
			"name":"Cube",
			"primitives":[
				{
					"attributes":{
						"POSITION":0,
						"NORMAL":1,
						"TEXCOORD_0":2
					},
					"indices":3,
					"material":0
				},
				{
					"attributes":{
						"POSITION":4,
						"NORMAL":5,
						"TEXCOORD_0":6
					},
					"indices":7,
					"material":1
				},
				{
					"attributes":{
						"POSITION":8,
						"NORMAL":9,
						"TEXCOORD_0":10
					},
					"indices":11,
					"material":2
				},
				{
					"attributes":{
						"POSITION":12,
						"NORMAL":13,
						"TEXCOORD_0":14
					},
					"indices":15,
					"material":2
				}
			]
		},
		{
			"name":"Cylinder.001",
			"primitives":[
				{
					"attributes":{
						"POSITION":16,
						"NORMAL":17,
						"TEXCOORD_0":18
					},
					"indices":19,
					"material":3
				}
			]
		},
		{
			"name":"Cylinder.002",
			"primitives":[
				{
					"attributes":{
						"POSITION":20,
						"NORMAL":21,
						"TEXCOORD_0":22
					},
					"indices":19,
					"material":4
				}
			]
		},
		{
			"name":"Cube.001",
			"primitives":[
				{
					"attributes":{
						"POSITION":23,
						"NORMAL":24,
						"TEXCOORD_0":25
					},
					"indices":26,
					"material":5
				},
				{
					"attributes":{
						"POSITION":27,
						"NORMAL":28,
						"TEXCOORD_0":29
					},
					"indices":30,
					"material":6
				}
			]
		},
		{
			"name":"Cube.002",
			"primitives":[
				{
					"attributes":{
						"POSITION":31,
						"NORMAL":32,
						"TEXCOORD_0":33
					},
					"indices":34,
					"material":7
				}
			]
		},
		{
			"name":"Cube.003",
			"primitives":[
				{
					"attributes":{
						"POSITION":35,
						"NORMAL":36,
						"TEXCOORD_0":37
					},
					"indices":38
				}
			]
		},
		{
			"name":"Cube.004",
			"primitives":[
				{
					"attributes":{
						"POSITION":39,
						"NORMAL":40,
						"TEXCOORD_0":41
					},
					"indices":42,
					"material":8
				}
			]
		},
		{
			"name":"Cube.005",
			"primitives":[
				{
					"attributes":{
						"POSITION":43,
						"NORMAL":44,
						"TEXCOORD_0":45
					},
					"indices":46,
					"material":9
				}
			]
		},
		{
			"name":"Text",
			"primitives":[
				{
					"attributes":{
						"POSITION":47,
						"NORMAL":48,
						"TEXCOORD_0":49
					},
					"indices":50,
					"material":10
				}
			]
		},
		{
			"name":"Text.001",
			"primitives":[
				{
					"attributes":{
						"POSITION":51,
						"NORMAL":52,
						"TEXCOORD_0":53
					},
					"indices":54,
					"material":11
				}
			]
		},
		{
			"name":"Text.002",
			"primitives":[
				{
					"attributes":{
						"POSITION":55,
						"NORMAL":56,
						"TEXCOORD_0":57
					},
					"indices":58,
					"material":12
				}
			]
		}
	],
	"accessors":[
		{
			"bufferView":0,
			"componentType":5126,
			"count":269,
			"max":[
				1,
				1,
				1.0152719020843506
			],
			"min":[
				-1,
				-3.0279972553253174,
				-1.0062121152877808
			],
			"type":"VEC3"
		},
		{
			"bufferView":1,
			"componentType":5126,
			"count":269,
			"type":"VEC3"
		},
		{
			"bufferView":2,
			"componentType":5126,
			"count":269,
			"type":"VEC2"
		},
		{
			"bufferView":3,
			"componentType":5123,
			"count":732,
			"type":"SCALAR"
		},
		{
			"bufferView":4,
			"componentType":5126,
			"count":16,
			"max":[
				0.375,
				-1.180849552154541,
				1
			],
			"min":[
				-0.5,
				-1.1837620735168457,
				-1
			],
			"type":"VEC3"
		},
		{
			"bufferView":5,
			"componentType":5126,
			"count":16,
			"type":"VEC3"
		},
		{
			"bufferView":6,
			"componentType":5126,
			"count":16,
			"type":"VEC2"
		},
		{
			"bufferView":7,
			"componentType":5123,
			"count":30,
			"type":"SCALAR"
		},
		{
			"bufferView":8,
			"componentType":5126,
			"count":10,
			"max":[
				0.375,
				0,
				1.0152719020843506
			],
			"min":[
				0.25,
				-1.180849552154541,
				1
			],
			"type":"VEC3"
		},
		{
			"bufferView":9,
			"componentType":5126,
			"count":10,
			"type":"VEC3"
		},
		{
			"bufferView":10,
			"componentType":5126,
			"count":10,
			"type":"VEC2"
		},
		{
			"bufferView":11,
			"componentType":5123,
			"count":18,
			"type":"SCALAR"
		},
		{
			"bufferView":12,
			"componentType":5126,
			"count":26,
			"max":[
				0.3776710331439972,
				0,
				1.0152719020843506
			],
			"min":[
				-0.5,
				-1.1837620735168457,
				-1.0062121152877808
			],
			"type":"VEC3"
		},
		{
			"bufferView":13,
			"componentType":5126,
			"count":26,
			"type":"VEC3"
		},
		{
			"bufferView":14,
			"componentType":5126,
			"count":26,
			"type":"VEC2"
		},
		{
			"bufferView":15,
			"componentType":5123,
			"count":48,
			"type":"SCALAR"
		},
		{
			"bufferView":16,
			"componentType":5126,
			"count":192,
			"max":[
				1,
				1,
				1
			],
			"min":[
				-1,
				-1,
				-1
			],
			"type":"VEC3"
		},
		{
			"bufferView":17,
			"componentType":5126,
			"count":192,
			"type":"VEC3"
		},
		{
			"bufferView":18,
			"componentType":5126,
			"count":192,
			"type":"VEC2"
		},
		{
			"bufferView":19,
			"componentType":5123,
			"count":372,
			"type":"SCALAR"
		},
		{
			"bufferView":20,
			"componentType":5126,
			"count":192,
			"max":[
				1,
				1,
				1
			],
			"min":[
				-1,
				-1,
				-1
			],
			"type":"VEC3"
		},
		{
			"bufferView":21,
			"componentType":5126,
			"count":192,
			"type":"VEC3"
		},
		{
			"bufferView":22,
			"componentType":5126,
			"count":192,
			"type":"VEC2"
		},
		{
			"bufferView":23,
			"componentType":5126,
			"count":52,
			"max":[
				1,
				1,
				1
			],
			"min":[
				-1,
				-1,
				-1
			],
			"type":"VEC3"
		},
		{
			"bufferView":24,
			"componentType":5126,
			"count":52,
			"type":"VEC3"
		},
		{
			"bufferView":25,
			"componentType":5126,
			"count":52,
			"type":"VEC2"
		},
		{
			"bufferView":26,
			"componentType":5123,
			"count":78,
			"type":"SCALAR"
		},
		{
			"bufferView":27,
			"componentType":5126,
			"count":4,
			"max":[
				0.9205101728439331,
				-0.2131471037864685,
				0.8412908911705017
			],
			"min":[
				-0.7620716094970703,
				-0.2131471037864685,
				-0.8412908911705017
			],
			"type":"VEC3"
		},
		{
			"bufferView":28,
			"componentType":5126,
			"count":4,
			"type":"VEC3"
		},
		{
			"bufferView":29,
			"componentType":5126,
			"count":4,
			"type":"VEC2"
		},
		{
			"bufferView":30,
			"componentType":5123,
			"count":6,
			"type":"SCALAR"
		},
		{
			"bufferView":31,
			"componentType":5126,
			"count":24,
			"max":[
				1,
				1,
				1
			],
			"min":[
				-1,
				-1,
				-1
			],
			"type":"VEC3"
		},
		{
			"bufferView":32,
			"componentType":5126,
			"count":24,
			"type":"VEC3"
		},
		{
			"bufferView":33,
			"componentType":5126,
			"count":24,
			"type":"VEC2"
		},
		{
			"bufferView":34,
			"componentType":5123,
			"count":36,
			"type":"SCALAR"
		},
		{
			"bufferView":35,
			"componentType":5126,
			"count":2424,
			"max":[
				1,
				1,
				1
			],
			"min":[
				-1,
				-1,
				-1
			],
			"type":"VEC3"
		},
		{
			"bufferView":36,
			"componentType":5126,
			"count":2424,
			"type":"VEC3"
		},
		{
			"bufferView":37,
			"componentType":5126,
			"count":2424,
			"type":"VEC2"
		},
		{
			"bufferView":38,
			"componentType":5123,
			"count":4836,
			"type":"SCALAR"
		},
		{
			"bufferView":39,
			"componentType":5126,
			"count":576,
			"max":[
				1,
				1,
				1
			],
			"min":[
				-1,
				-1,
				-1
			],
			"type":"VEC3"
		},
		{
			"bufferView":40,
			"componentType":5126,
			"count":576,
			"type":"VEC3"
		},
		{
			"bufferView":41,
			"componentType":5126,
			"count":576,
			"type":"VEC2"
		},
		{
			"bufferView":42,
			"componentType":5123,
			"count":1140,
			"type":"SCALAR"
		},
		{
			"bufferView":43,
			"componentType":5126,
			"count":780,
			"max":[
				1,
				1,
				1
			],
			"min":[
				-1,
				-1,
				-2.587095260620117
			],
			"type":"VEC3"
		},
		{
			"bufferView":44,
			"componentType":5126,
			"count":780,
			"type":"VEC3"
		},
		{
			"bufferView":45,
			"componentType":5126,
			"count":780,
			"type":"VEC2"
		},
		{
			"bufferView":46,
			"componentType":5123,
			"count":1536,
			"type":"SCALAR"
		},
		{
			"bufferView":47,
			"componentType":5126,
			"count":445,
			"max":[
				0.18496017158031464,
				0,
				0.0007200007094070315
			],
			"min":[
				0.006000005640089512,
				0,
				-0.05456005409359932
			],
			"type":"VEC3"
		},
		{
			"bufferView":48,
			"componentType":5126,
			"count":445,
			"type":"VEC3"
		},
		{
			"bufferView":49,
			"componentType":5126,
			"count":445,
			"type":"VEC2"
		},
		{
			"bufferView":50,
			"componentType":5123,
			"count":1314,
			"type":"SCALAR"
		},
		{
			"bufferView":51,
			"componentType":5126,
			"count":343,
			"max":[
				0.16560016572475433,
				0,
				0.0007200007094070315
			],
			"min":[
				0.0013600012753158808,
				0,
				-0.05456005409359932
			],
			"type":"VEC3"
		},
		{
			"bufferView":52,
			"componentType":5126,
			"count":343,
			"type":"VEC3"
		},
		{
			"bufferView":53,
			"componentType":5126,
			"count":343,
			"type":"VEC2"
		},
		{
			"bufferView":54,
			"componentType":5123,
			"count":1002,
			"type":"SCALAR"
		},
		{
			"bufferView":55,
			"componentType":5126,
			"count":1056,
			"max":[
				1.4944806098937988,
				0,
				0.002340001054108143
			],
			"min":[
				0.0078000035136938095,
				0,
				-0.17966008186340332
			],
			"type":"VEC3"
		},
		{
			"bufferView":56,
			"componentType":5126,
			"count":1056,
			"type":"VEC3"
		},
		{
			"bufferView":57,
			"componentType":5126,
			"count":1056,
			"type":"VEC2"
		},
		{
			"bufferView":58,
			"componentType":5123,
			"count":3168,
			"type":"SCALAR"
		}
	],
	"bufferViews":[
		{
			"buffer":0,
			"byteLength":3228,
			"byteOffset":0,
			"target":34962
		},
		{
			"buffer":0,
			"byteLength":3228,
			"byteOffset":3228,
			"target":34962
		},
		{
			"buffer":0,
			"byteLength":2152,
			"byteOffset":6456,
			"target":34962
		},
		{
			"buffer":0,
			"byteLength":1464,
			"byteOffset":8608,
			"target":34963
		},
		{
			"buffer":0,
			"byteLength":192,
			"byteOffset":10072,
			"target":34962
		},
		{
			"buffer":0,
			"byteLength":192,
			"byteOffset":10264,
			"target":34962
		},
		{
			"buffer":0,
			"byteLength":128,
			"byteOffset":10456,
			"target":34962
		},
		{
			"buffer":0,
			"byteLength":60,
			"byteOffset":10584,
			"target":34963
		},
		{
			"buffer":0,
			"byteLength":120,
			"byteOffset":10644,
			"target":34962
		},
		{
			"buffer":0,
			"byteLength":120,
			"byteOffset":10764,
			"target":34962
		},
		{
			"buffer":0,
			"byteLength":80,
			"byteOffset":10884,
			"target":34962
		},
		{
			"buffer":0,
			"byteLength":36,
			"byteOffset":10964,
			"target":34963
		},
		{
			"buffer":0,
			"byteLength":312,
			"byteOffset":11000,
			"target":34962
		},
		{
			"buffer":0,
			"byteLength":312,
			"byteOffset":11312,
			"target":34962
		},
		{
			"buffer":0,
			"byteLength":208,
			"byteOffset":11624,
			"target":34962
		},
		{
			"buffer":0,
			"byteLength":96,
			"byteOffset":11832,
			"target":34963
		},
		{
			"buffer":0,
			"byteLength":2304,
			"byteOffset":11928,
			"target":34962
		},
		{
			"buffer":0,
			"byteLength":2304,
			"byteOffset":14232,
			"target":34962
		},
		{
			"buffer":0,
			"byteLength":1536,
			"byteOffset":16536,
			"target":34962
		},
		{
			"buffer":0,
			"byteLength":744,
			"byteOffset":18072,
			"target":34963
		},
		{
			"buffer":0,
			"byteLength":2304,
			"byteOffset":18816,
			"target":34962
		},
		{
			"buffer":0,
			"byteLength":2304,
			"byteOffset":21120,
			"target":34962
		},
		{
			"buffer":0,
			"byteLength":1536,
			"byteOffset":23424,
			"target":34962
		},
		{
			"buffer":0,
			"byteLength":624,
			"byteOffset":24960,
			"target":34962
		},
		{
			"buffer":0,
			"byteLength":624,
			"byteOffset":25584,
			"target":34962
		},
		{
			"buffer":0,
			"byteLength":416,
			"byteOffset":26208,
			"target":34962
		},
		{
			"buffer":0,
			"byteLength":156,
			"byteOffset":26624,
			"target":34963
		},
		{
			"buffer":0,
			"byteLength":48,
			"byteOffset":26780,
			"target":34962
		},
		{
			"buffer":0,
			"byteLength":48,
			"byteOffset":26828,
			"target":34962
		},
		{
			"buffer":0,
			"byteLength":32,
			"byteOffset":26876,
			"target":34962
		},
		{
			"buffer":0,
			"byteLength":12,
			"byteOffset":26908,
			"target":34963
		},
		{
			"buffer":0,
			"byteLength":288,
			"byteOffset":26920,
			"target":34962
		},
		{
			"buffer":0,
			"byteLength":288,
			"byteOffset":27208,
			"target":34962
		},
		{
			"buffer":0,
			"byteLength":192,
			"byteOffset":27496,
			"target":34962
		},
		{
			"buffer":0,
			"byteLength":72,
			"byteOffset":27688,
			"target":34963
		},
		{
			"buffer":0,
			"byteLength":29088,
			"byteOffset":27760,
			"target":34962
		},
		{
			"buffer":0,
			"byteLength":29088,
			"byteOffset":56848,
			"target":34962
		},
		{
			"buffer":0,
			"byteLength":19392,
			"byteOffset":85936,
			"target":34962
		},
		{
			"buffer":0,
			"byteLength":9672,
			"byteOffset":105328,
			"target":34963
		},
		{
			"buffer":0,
			"byteLength":6912,
			"byteOffset":115000,
			"target":34962
		},
		{
			"buffer":0,
			"byteLength":6912,
			"byteOffset":121912,
			"target":34962
		},
		{
			"buffer":0,
			"byteLength":4608,
			"byteOffset":128824,
			"target":34962
		},
		{
			"buffer":0,
			"byteLength":2280,
			"byteOffset":133432,
			"target":34963
		},
		{
			"buffer":0,
			"byteLength":9360,
			"byteOffset":135712,
			"target":34962
		},
		{
			"buffer":0,
			"byteLength":9360,
			"byteOffset":145072,
			"target":34962
		},
		{
			"buffer":0,
			"byteLength":6240,
			"byteOffset":154432,
			"target":34962
		},
		{
			"buffer":0,
			"byteLength":3072,
			"byteOffset":160672,
			"target":34963
		},
		{
			"buffer":0,
			"byteLength":5340,
			"byteOffset":163744,
			"target":34962
		},
		{
			"buffer":0,
			"byteLength":5340,
			"byteOffset":169084,
			"target":34962
		},
		{
			"buffer":0,
			"byteLength":3560,
			"byteOffset":174424,
			"target":34962
		},
		{
			"buffer":0,
			"byteLength":2628,
			"byteOffset":177984,
			"target":34963
		},
		{
			"buffer":0,
			"byteLength":4116,
			"byteOffset":180612,
			"target":34962
		},
		{
			"buffer":0,
			"byteLength":4116,
			"byteOffset":184728,
			"target":34962
		},
		{
			"buffer":0,
			"byteLength":2744,
			"byteOffset":188844,
			"target":34962
		},
		{
			"buffer":0,
			"byteLength":2004,
			"byteOffset":191588,
			"target":34963
		},
		{
			"buffer":0,
			"byteLength":12672,
			"byteOffset":193592,
			"target":34962
		},
		{
			"buffer":0,
			"byteLength":12672,
			"byteOffset":206264,
			"target":34962
		},
		{
			"buffer":0,
			"byteLength":8448,
			"byteOffset":218936,
			"target":34962
		},
		{
			"buffer":0,
			"byteLength":6336,
			"byteOffset":227384,
			"target":34963
		}
	],
	"buffers":[
		{
			"byteLength":233720,
			"uri":"voting%20machine.bin"
		}
	]
}
